<?xml version="1.0" encoding="utf-8"?>
<svg version="1.1" xmlns:xlink="http://www.w3.org/1999/xlink" width="30px" height="30px" xmlns="http://www.w3.org/2000/svg">
  <defs>
    <linearGradient gradientUnits="userSpaceOnUse" x1="15" y1="0" x2="15" y2="30" id="LinearGradient210">
      <stop id="Stop211" stop-color="#d9001b" offset="0" />
      <stop id="Stop212" stop-color="#f59a23" offset="1" />
    </linearGradient>
  </defs>
  <g transform="matrix(1 0 0 1 -272 -768 )">
    <path d="M 4.28571428571429 10  L 4.28571428571429 25  L 25.7142857142857 25  L 25.7142857142857 10  L 4.28571428571429 10  Z M 29.2131696428571 0.917968750000001  C 29.7377232142857 1.52994791666667  30 2.265625  30 3.125  L 30 26.875  C 30 27.734375  29.7377232142857 28.4700520833333  29.2131696428571 29.08203125  C 28.6886160714286 29.6940104166667  28.0580357142857 30  27.3214285714286 30  L 2.67857142857143 30  C 1.94196428571429 30  1.31138392857143 29.6940104166667  0.786830357142857 29.08203125  C 0.262276785714286 28.4700520833333  0 27.734375  0 26.875  L 0 3.125  C 0 2.265625  0.262276785714286 1.52994791666667  0.786830357142857 0.917968750000001  C 1.31138392857143 0.30598958333333  1.94196428571429 0  2.67857142857143 0  L 27.3214285714286 0  C 28.0580357142857 0  28.6886160714286 0.30598958333333  29.2131696428571 0.917968750000001  Z " fill-rule="nonzero" fill="url(#LinearGradient210)" stroke="none" transform="matrix(1 0 0 1 272 768 )" />
  </g>
</svg>