<?xml version="1.0" encoding="utf-8"?>
<svg version="1.1" xmlns:xlink="http://www.w3.org/1999/xlink" width="20px" height="20px" xmlns="http://www.w3.org/2000/svg">
  <g transform="matrix(1 0 0 1 -316 -404 )">
    <path d="M 15.6138392857143 11.7838541666667  C 15.6808035714286 11.8619791666667  15.7142857142857 11.9618055555556  15.7142857142857 12.0833333333333  L 15.7142857142857 16.25  C 15.7142857142857 17.2829861111111  15.3999255952381 18.1662326388889  14.7712053571429 18.8997395833333  C 14.1424851190476 19.6332465277778  13.3854166666667 20  12.5 20  L 3.21428571428571 20  C 2.32886904761905 20  1.5718005952381 19.6332465277778  0.943080357142857 18.8997395833333  C 0.314360119047619 18.1662326388889  0 17.2829861111111  0 16.25  L 0 5.41666666666667  C 0 4.38368055555555  0.314360119047619 3.50043402777778  0.943080357142857 2.76692708333333  C 1.5718005952381 2.03342013888889  2.32886904761905 1.66666666666667  3.21428571428571 1.66666666666667  L 11.0714285714286 1.66666666666667  C 11.1755952380952 1.66666666666667  11.2611607142857 1.70572916666667  11.328125 1.78385416666667  C 11.3950892857143 1.86197916666667  11.4285714285714 1.96180555555555  11.4285714285714 2.08333333333333  L 11.4285714285714 2.91666666666667  C 11.4285714285714 3.03819444444444  11.3950892857143 3.13802083333333  11.328125 3.21614583333333  C 11.2611607142857 3.29427083333333  11.1755952380952 3.33333333333333  11.0714285714286 3.33333333333333  L 3.21428571428571 3.33333333333333  C 2.72321428571429 3.33333333333333  2.30282738095238 3.53732638888889  1.953125 3.9453125  C 1.60342261904762 4.35329861111111  1.42857142857143 4.84375  1.42857142857143 5.41666666666667  L 1.42857142857143 16.25  C 1.42857142857143 16.8229166666667  1.60342261904762 17.3133680555556  1.953125 17.7213541666667  C 2.30282738095238 18.1293402777778  2.72321428571429 18.3333333333333  3.21428571428571 18.3333333333333  L 12.5 18.3333333333333  C 12.9910714285714 18.3333333333333  13.4114583333333 18.1293402777778  13.7611607142857 17.7213541666667  C 14.1108630952381 17.3133680555556  14.2857142857143 16.8229166666667  14.2857142857143 16.25  L 14.2857142857143 12.0833333333333  C 14.2857142857143 11.9618055555556  14.3191964285714 11.8619791666667  14.3861607142857 11.7838541666667  C 14.453125 11.7057291666667  14.5386904761905 11.6666666666667  14.6428571428571 11.6666666666667  L 15.3571428571429 11.6666666666667  C 15.4613095238095 11.6666666666667  15.546875 11.7057291666667  15.6138392857143 11.7838541666667  Z M 19.7879464285714 0.247395833333333  C 19.9293154761905 0.412326388888886  20 0.607638888888886  20 0.833333333333333  L 20 7.5  C 20 7.72569444444444  19.9293154761905 7.92100694444444  19.7879464285714 8.0859375  C 19.6465773809524 8.25086805555556  19.4791666666667 8.33333333333333  19.2857142857143 8.33333333333333  C 19.0922619047619 8.33333333333333  18.9248511904762 8.25086805555556  18.7834821428571 8.0859375  L 16.8191964285714 5.79427083333333  L 9.54241071428571 14.2838541666667  C 9.46800595238095 14.3706597222222  9.38244047619048 14.4140625  9.28571428571429 14.4140625  C 9.1889880952381 14.4140625  9.10342261904762 14.3706597222222  9.02901785714286 14.2838541666667  L 7.75669642857143 12.7994791666667  C 7.68229166666667 12.7126736111111  7.64508928571429 12.6128472222222  7.64508928571429 12.5  C 7.64508928571429 12.3871527777778  7.68229166666667 12.2873263888889  7.75669642857143 12.2005208333333  L 15.0334821428571 3.7109375  L 13.0691964285714 1.41927083333333  C 12.9278273809524 1.25434027777778  12.8571428571429 1.05902777777778  12.8571428571429 0.833333333333333  C 12.8571428571429 0.607638888888886  12.9278273809524 0.412326388888886  13.0691964285714 0.247395833333333  C 13.2105654761905 0.082465277777779  13.3779761904762 0  13.5714285714286 0  L 19.2857142857143 0  C 19.4791666666667 0  19.6465773809524 0.082465277777779  19.7879464285714 0.247395833333333  Z " fill-rule="nonzero" fill="#000000" stroke="none" transform="matrix(1 0 0 1 316 404 )" />
  </g>
</svg>