<?xml version="1.0" encoding="utf-8"?>
<svg version="1.1" xmlns:xlink="http://www.w3.org/1999/xlink" width="20px" height="20px" xmlns="http://www.w3.org/2000/svg">
  <g transform="matrix(1 0 0 1 -40 -204 )">
    <path d="M 10.2566964285714 9.46614583333333  C 10.3236607142857 9.38802083333333  10.3571428571429 9.28819444444444  10.3571428571429 9.16666666666667  C 10.3571428571429 9.04513888888889  10.3236607142857 8.9453125  10.2566964285714 8.8671875  C 10.1897321428571 8.7890625  10.1041666666667 8.75  10 8.75  C 9.50892857142857 8.75  9.08854166666667 8.95399305555556  8.73883928571429 9.36197916666667  C 8.38913690476191 9.76996527777778  8.21428571428571 10.2604166666667  8.21428571428571 10.8333333333333  C 8.21428571428571 10.9548611111111  8.24776785714286 11.0546875  8.31473214285714 11.1328125  C 8.38169642857143 11.2109375  8.46726190476191 11.25  8.57142857142857 11.25  C 8.67559523809524 11.25  8.76116071428571 11.2109375  8.828125 11.1328125  C 8.89508928571429 11.0546875  8.92857142857143 10.9548611111111  8.92857142857143 10.8333333333333  C 8.92857142857143 10.4861111111111  9.03273809523809 10.1909722222222  9.24107142857143 9.94791666666667  C 9.44940476190476 9.70486111111111  9.70238095238095 9.58333333333333  10 9.58333333333333  C 10.1041666666667 9.58333333333333  10.1897321428571 9.54427083333333  10.2566964285714 9.46614583333333  Z M 12.0200892857143 8.50260416666667  C 12.578125 9.15364583333333  12.8571428571429 9.93923611111111  12.8571428571429 10.859375  C 12.8571428571429 11.7795138888889  12.578125 12.5651041666667  12.0200892857143 13.2161458333333  C 11.4620535714286 13.8671875  10.7886904761905 14.1927083333333  10 14.1927083333333  C 9.21130952380952 14.1927083333333  8.53794642857143 13.8671875  7.97991071428571 13.2161458333333  C 7.421875 12.5651041666667  7.14285714285714 11.7795138888889  7.14285714285714 10.859375  C 7.14285714285714 9.93923611111111  7.421875 9.15364583333333  7.97991071428571 8.50260416666667  C 8.53794642857143 7.8515625  9.21130952380952 7.52604166666667  10 7.52604166666667  C 10.7886904761905 7.52604166666667  11.4620535714286 7.8515625  12.0200892857143 8.50260416666667  Z M 1.42857142857143 16.6666666666667  L 1.42857142857143 18  L 18.5714285714286 18  L 18.5714285714286 16.6666666666667  L 1.42857142857143 16.6666666666667  Z M 13.0301339285714 14.39453125  C 13.8671875 13.41796875  14.2857142857143 12.2395833333333  14.2857142857143 10.859375  C 14.2857142857143 9.47916666666667  13.8671875 8.30078125  13.0301339285714 7.32421875  C 12.1930803571429 6.34765625  11.1830357142857 5.859375  10 5.859375  C 8.81696428571429 5.859375  7.80691964285714 6.34765625  6.96986607142857 7.32421875  C 6.1328125 8.30078125  5.71428571428571 9.47916666666667  5.71428571428571 10.859375  C 5.71428571428571 12.2395833333333  6.1328125 13.41796875  6.96986607142857 14.39453125  C 7.80691964285714 15.37109375  8.81696428571429 15.859375  10 15.859375  C 11.1830357142857 15.859375  12.1930803571429 15.37109375  13.0301339285714 14.39453125  Z M 2.85714285714286 0.833333333333333  L 2.85714285714286 2.5  L 7.14285714285714 2.5  L 7.14285714285714 0.833333333333333  L 2.85714285714286 0.833333333333333  Z M 1.42857142857143 3.33333333333333  L 1.42857142857143 5  L 18.5714285714286 5  L 18.5714285714286 3.46354166666667  L 18.5714285714286 1.66666666666667  L 9.33035714285714 1.66666666666667  L 8.61607142857143 3.33333333333333  L 1.42857142857143 3.33333333333333  Z M 19.5814732142857 0.48828125  C 19.8604910714286 0.813802083333333  20 1.20659722222222  20 1.66666666666667  L 20 18.3333333333333  C 20 18.7934027777778  19.8604910714286 19.1861979166667  19.5814732142857 19.51171875  C 19.3024553571429 19.8372395833333  18.9657738095238 20  18.5714285714286 20  L 1.42857142857143 20  C 1.03422619047619 20  0.697544642857143 19.8372395833333  0.418526785714286 19.51171875  C 0.139508928571429 19.1861979166667  0 18.7934027777778  0 18.3333333333333  L 0 1.66666666666667  C 0 1.20659722222222  0.139508928571429 0.813802083333333  0.418526785714286 0.48828125  C 0.697544642857143 0.162760416666667  1.03422619047619 0  1.42857142857143 0  L 18.5714285714286 0  C 18.9657738095238 0  19.3024553571429 0.162760416666667  19.5814732142857 0.48828125  Z " fill-rule="nonzero" fill="#015478" stroke="none" transform="matrix(1 0 0 1 40 204 )" />
  </g>
</svg>