<?xml version="1.0" encoding="utf-8"?>
<svg version="1.1" xmlns:xlink="http://www.w3.org/1999/xlink" width="20px" height="20px" xmlns="http://www.w3.org/2000/svg">
  <g transform="matrix(1 0 0 1 -172 -214 )">
    <path d="M 14.2578125 2.57161458333333  C 12.9371279761905 1.96831597222222  11.5178571428571 1.66666666666667  10 1.66666666666667  C 8.48214285714286 1.66666666666667  7.06287202380952 1.96831597222222  5.7421875 2.57161458333333  C 4.42150297619048 3.17491319444444  3.37239583333333 3.98871527777778  2.59486607142857 5.01302083333333  C 1.81733630952381 6.03732638888889  1.42857142857143 7.14409722222222  1.42857142857143 8.33333333333333  C 1.42857142857143 9.30555555555556  1.69456845238095 10.2322048611111  2.2265625 11.11328125  C 2.75855654761905 11.9943576388889  3.50818452380952 12.7560763888889  4.47544642857143 13.3984375  L 5.44642857142857 14.0494791666667  L 5.14508928571429 15.2994791666667  C 4.96651785714286 16.0894097222222  4.70610119047619 16.8359375  4.36383928571429 17.5390625  C 5.49479166666667 16.9921875  6.51785714285714 16.25  7.43303571428571 15.3125  L 7.91294642857143 14.8177083333333  L 8.54910714285714 14.8958333333333  C 9.0625 14.9652777777778  9.54613095238095 15  10 15  C 11.5178571428571 15  12.9371279761905 14.6983506944444  14.2578125 14.0950520833333  C 15.5784970238095 13.4917534722222  16.6276041666667 12.6779513888889  17.4051339285714 11.6536458333333  C 18.1826636904762 10.6293402777778  18.5714285714286 9.52256944444444  18.5714285714286 8.33333333333333  C 18.5714285714286 7.14409722222222  18.1826636904762 6.03732638888889  17.4051339285714 5.01302083333333  C 16.6276041666667 3.98871527777778  15.5784970238095 3.17491319444444  14.2578125 2.57161458333333  Z M 18.6607142857143 4.14713541666667  C 19.5535714285714 5.42751736111111  20 6.82291666666667  20 8.33333333333333  C 20 9.84375  19.5535714285714 11.2391493055556  18.6607142857143 12.51953125  C 17.7678571428571 13.7999131944444  16.5550595238095 14.8111979166667  15.0223214285714 15.5533854166667  C 13.4895833333333 16.2955729166667  11.8154761904762 16.6666666666667  10 16.6666666666667  C 9.47916666666667 16.6666666666667  8.93973214285714 16.6319444444444  8.38169642857143 16.5625  C 6.90848214285714 18.0815972222222  5.19717261904762 19.1319444444444  3.24776785714286 19.7135416666667  C 2.88318452380952 19.8350694444444  2.45907738095238 19.9305555555556  1.97544642857143 20  L 1.91964285714286 20  C 1.80803571428571 20  1.70758928571429 19.9544270833333  1.61830357142857 19.86328125  C 1.52901785714286 19.7721354166667  1.46949404761905 19.6527777777778  1.43973214285714 19.5052083333333  L 1.43973214285714 19.4921875  C 1.41741071428571 19.4574652777778  1.4155505952381 19.4053819444444  1.43415178571429 19.3359375  C 1.45275297619048 19.2664930555556  1.46019345238095 19.2230902777778  1.45647321428571 19.2057291666667  C 1.45275297619048 19.1883680555556  1.46949404761905 19.1471354166667  1.50669642857143 19.08203125  L 1.57366071428571 18.96484375  C 1.57366071428571 18.96484375  1.59970238095238 18.9279513888889  1.65178571428571 18.8541666666667  C 1.70386904761905 18.7803819444444  1.73363095238095 18.7413194444444  1.74107142857143 18.7369791666667  C 1.79315476190476 18.6675347222222  1.90848214285714 18.5177951388889  2.08705357142857 18.2877604166667  C 2.265625 18.0577256944444  2.39397321428571 17.8927951388889  2.47209821428571 17.79296875  C 2.55022321428571 17.6931423611111  2.6655505952381 17.5217013888889  2.81808035714286 17.2786458333333  C 2.97061011904762 17.0355902777778  3.09151785714286 16.8142361111111  3.18080357142857 16.6145833333333  C 3.27008928571429 16.4149305555556  3.37053571428571 16.1588541666667  3.48214285714286 15.8463541666667  C 3.59375 15.5338541666667  3.69047619047619 15.2039930555556  3.77232142857143 14.8567708333333  C 2.60416666666667 14.0842013888889  1.68340773809524 13.1293402777778  1.01004464285714 11.9921875  C 0.336681547619048 10.8550347222222  0 9.63541666666667  0 8.33333333333333  C 0 6.82291666666667  0.446428571428571 5.42751736111111  1.33928571428571 4.14713541666667  C 2.23214285714286 2.86675347222222  3.44494047619048 1.85546875  4.97767857142857 1.11328125  C 6.51041666666667 0.37109375  8.18452380952381 0  10 0  C 11.8154761904762 0  13.4895833333333 0.37109375  15.0223214285714 1.11328125  C 16.5550595238095 1.85546875  17.7678571428571 2.86675347222222  18.6607142857143 4.14713541666667  Z " fill-rule="nonzero" fill="#000000" stroke="none" transform="matrix(1 0 0 1 172 214 )" />
  </g>
</svg>