<?xml version="1.0" encoding="utf-8"?>
<svg version="1.1" xmlns:xlink="http://www.w3.org/1999/xlink" width="25px" height="25px" xmlns="http://www.w3.org/2000/svg">
  <g transform="matrix(1 0 0 1 -159 -735 )">
    <path d="M 13.8113839285714 3.19375443577005  C 12.5744047619048 2.578660988881  11.2444196428571 2.27111426543648  9.82142857142857 2.27111426543648  C 8.3984375 2.27111426543648  7.06845238095238 2.578660988881  5.83147321428571 3.19375443577005  C 4.59449404761905 3.80884788265909  3.61095610119048 4.64277265199905  2.880859375 5.69552874378992  C 2.15076264880952 6.74828483558079  1.78571428571429 7.87792760823279  1.78571428571429 9.08445706174592  C 1.78571428571429 10.0544121126094  2.03218005952381 10.9888810030755  2.52511160714286 11.8878637331441  C 3.01804315476191 12.7868464632127  3.7109375 13.5675419919565  4.60379464285714 14.2299503193754  L 5.95703125 15.2235628105039  L 5.46875 16.7139815471966  C 5.78497023809524 16.477407144547  6.07328869047619 16.2467471019636  6.33370535714286 16.0220014194464  L 6.94754464285714 15.471965933286  L 7.68694196428571 15.6493967352732  C 8.41238839285714 15.814998817128  9.12388392857143 15.8977998580554  9.82142857142857 15.8977998580554  C 11.2444196428571 15.8977998580554  12.5744047619048 15.5902531346108  13.8113839285714 14.9751596877218  C 15.0483630952381 14.3600662408327  16.0319010416667 13.5261414714928  16.7619977678571 12.4733853797019  C 17.4920944940476 11.420629287911  17.8571428571429 10.290986515259  17.8571428571429 9.08445706174592  C 17.8571428571429 7.87792760823279  17.4920944940476 6.74828483558079  16.7619977678571 5.69552874378992  C 16.0319010416667 4.64277265199905  15.0483630952381 3.80884788265909  13.8113839285714 3.19375443577005  Z M 4.88978794642857 1.21540099361249  C 6.40113467261905 0.405133664537496  8.04501488095238 0  9.82142857142857 0  C 11.5978422619048 0  13.2417224702381 0.405133664537496  14.7530691964286 1.21540099361249  C 16.2644159226191 2.02566832268748  17.4572172619048 3.1286964750414  18.3314732142857 4.52448545067424  C 19.2057291666667 5.92027442630707  19.6428571428571 7.44026496333097  19.6428571428571 9.08445706174592  C 19.6428571428571 10.7286491601609  19.2057291666667 12.2486396971848  18.3314732142857 13.6444286728176  C 17.4572172619048 15.0402176484504  16.2644159226191 16.1432458008044  14.7530691964286 16.9535131298793  C 13.2417224702381 17.7637804589543  11.5978422619048 18.1689141234918  9.82142857142857 18.1689141234918  C 9.02157738095238 18.1689141234918  8.203125 18.074284362432  7.36607142857143 17.8850248403123  C 6.21279761904762 18.9259522119707  4.92001488095238 19.6829903004495  3.48772321428571 20.1561391057488  C 3.15290178571429 20.2625975869411  2.75297619047619 20.3572273480009  2.28794642857143 20.4400283889283  L 2.24609375 20.4400283889283  C 2.14378720238095 20.4400283889283  2.04845610119048 20.3927135083984  1.96010044642857 20.2980837473385  C 1.87174479166667 20.2034539862787  1.81826636904762 20.0792524248876  1.79966517857143 19.9254790631654  C 1.79036458333333 19.8899929027679  1.78571428571429 19.8515495623374  1.78571428571429 19.8101490418737  C 1.78571428571429 19.76874852141  1.78803943452381 19.7303051809794  1.79268973214286 19.694819020582  C 1.7973400297619 19.6593328601845  1.806640625 19.6238466997871  1.82059151785714 19.5883605393896  L 1.85546875 19.499645138396  C 1.85546875 19.499645138396  1.87174479166667 19.4671161580317  1.904296875 19.4020581973031  C 1.93684895833333 19.3370002365744  1.95545014880952 19.3074284362432  1.96010044642857 19.3133427963094  C 1.96475074404762 19.3192571563757  1.98567708333333 19.2896853560445  2.02287946428571 19.2246273953158  C 2.0600818452381 19.1595694345872  2.07868303571429 19.1329548142891  2.07868303571429 19.1447835344216  C 2.12518601190476 19.0738112136267  2.23214285714286 18.9259522119707  2.39955357142857 18.7012065294535  C 2.56696428571429 18.4764608469364  2.68787202380952 18.3019872249823  2.76227678571429 18.1777856635912  C 2.83668154761905 18.0535841022001  2.94131324404762 17.8820676602792  3.076171875 17.6632363378282  C 3.21103050595238 17.4444050153773  3.32728794642857 17.2167021528271  3.42494419642857 16.9801277501774  C 3.52260044642857 16.7435533475278  3.61793154761905 16.4833215046132  3.7109375 16.1994322214336  C 2.55766369047619 15.347764371895  1.6508556547619 14.3009226401703  0.990513392857143 13.0589070262598  C 0.330171130952381 11.8168914123492  0 10.4920747575112  0 9.08445706174592  C 0 7.44026496333097  0.437127976190476 5.92027442630707  1.31138392857143 4.52448545067424  C 2.18563988095238 3.1286964750414  3.3784412202381 2.02566832268748  4.88978794642857 1.21540099361249  Z M 24.0094866071429 17.6100070972321  C 23.3491443452381 18.8461083510764  22.4423363095238 19.8899929027679  21.2890625 20.7416607523066  C 21.3820684523809 21.0255500354862  21.4773995535714 21.2857818784008  21.5750558035714 21.5223562810504  C 21.6727120535714 21.7589306837  21.7889694940476 21.9866335462503  21.923828125 22.2054648687012  C 22.0586867559524 22.4242961911521  22.163318452381 22.5958126330731  22.2377232142857 22.7200141944642  C 22.3121279761905 22.8442157558552  22.4330357142857 23.0186893778093  22.6004464285714 23.2434350603265  C 22.7678571428571 23.4681807428436  22.8748139880952 23.6160397444996  22.9213169642857 23.6870120652945  C 22.9306175595238 23.698840785427  22.94921875 23.7254554057251  22.9771205357143 23.7668559261888  C 23.0050223214286 23.8082564466525  23.0259486607143 23.8378282469837  23.0398995535714 23.8555713271824  C 23.0538504464286 23.8733144073811  23.0724516369048 23.9028862077123  23.095703125 23.944286728176  C 23.1189546130952 23.9856872486397  23.1352306547619 24.018216229004  23.14453125 24.041873669269  L 23.1794084821429 24.1305890702626  C 23.1794084821429 24.1305890702626  23.188709077381 24.16607523066  23.2073102678571 24.2370475514549  C 23.2259114583333 24.3080198722498  23.2282366071429 24.3464632126804  23.2142857142857 24.3523775727466  C 23.2003348214286 24.3582919328129  23.1956845238095 24.3967352732434  23.2003348214286 24.4677075940383  C 23.1724330357143 24.6333096758931  23.1119791666667 24.7634255973504  23.0189732142857 24.8580553584102  C 22.9259672619048 24.9526851194701  22.8236607142857 24.9940856399338  22.7120535714286 24.9822569198013  C 22.2470238095238 24.8994558788739  21.8470982142857 24.8048261178141  21.5122767857143 24.6983676366217  C 20.0799851190476 24.2252188313225  18.7872023809524 23.4681807428436  17.6339285714286 22.4272533711852  C 16.796875 22.6165128933049  15.9784226190476 22.7111426543648  15.1785714285714 22.7111426543648  C 12.6581101190476 22.7111426543648  10.4631696428571 21.930447125621  8.59375 20.3690560681334  C 9.13318452380953 20.4163709486634  9.54241071428571 20.4400283889283  9.82142857142857 20.4400283889283  C 11.3188244047619 20.4400283889283  12.7557663690476 20.1738821859475  14.1322544642857 19.6415897799858  C 15.5087425595238 19.1092973740241  16.7364211309524 18.3463449254791  17.8152901785714 17.3527324343506  C 18.9778645833333 16.2644901821623  19.8707217261905 15.0106458481192  20.4938616071429 13.5911994322214  C 21.1170014880952 12.1717530163236  21.4285714285714 10.6695055594985  21.4285714285714 9.08445706174592  C 21.4285714285714 8.17364561154483  21.3216145833333 7.27466288147622  21.1077008928571 6.3875088715401  C 22.3074776785714 7.2273480009463  23.2561383928571 8.28010409273717  23.9536830357143 9.5457771469127  C 24.6512276785714 10.8114502010882  25 12.1717530163236  25 13.6266855926189  C 25 15.0461320085167  24.6698288690476 16.3739058433877  24.0094866071429 17.6100070972321  Z " fill-rule="nonzero" fill="#000000" stroke="none" transform="matrix(1 0 0 1 159 735 )" />
  </g>
</svg>