<?xml version="1.0" encoding="utf-8"?>
<svg version="1.1" xmlns:xlink="http://www.w3.org/1999/xlink" width="25px" height="25px" xmlns="http://www.w3.org/2000/svg">
  <g transform="matrix(1 0 0 1 -237 -735 )">
    <path d="M 17.4128605769231 18.9662388392857  C 17.8335336538462 18.5151599702381  18.0438701923077 17.9501488095238  18.0438701923077 17.2712053571429  C 18.0438701923077 16.7410714285714  18.0163261217949 16.2434895833333  17.9612379807692 15.7784598214286  C 17.9061498397436 15.3134300595238  17.8009815705128 14.8460751488095  17.6457331730769 14.3763950892857  C 17.490484775641 13.9067150297619  17.2926682692308 13.5067894345238  17.0522836538462 13.1766183035714  C 16.8118990384615 12.846447172619  16.4913862179487 12.5767299107143  16.0907451923077 12.3674665178571  C 15.6901041666667 12.158203125  15.234375 12.0535714285714  14.7235576923077 12.0535714285714  C 14.6634615384615 12.0907738095238  14.4956931089744 12.1861049107143  14.2202524038462 12.3395647321429  C 13.9448116987179 12.4930245535714  13.7319711538462 12.6069568452381  13.5817307692308 12.6813616071429  C 13.4314903846154 12.7557663690476  13.2286658653846 12.8487723214286  12.9732572115385 12.9603794642857  C 12.7178485576923 13.0719866071429  12.4724559294872 13.1510416666667  12.2370793269231 13.1975446428571  C 12.001702724359 13.2440476190476  11.7688301282051 13.2672991071429  11.5384615384615 13.2672991071429  C 11.308092948718 13.2672991071429  11.0752203525641 13.2440476190476  10.83984375 13.1975446428571  C 10.6044671474359 13.1510416666667  10.3590745192308 13.0719866071429  10.1036658653846 12.9603794642857  C 9.84825721153846 12.8487723214286  9.64543269230769 12.7557663690476  9.49519230769231 12.6813616071429  C 9.34495192307692 12.6069568452381  9.13211137820513 12.4930245535714  8.85667067307692 12.3395647321429  C 8.58122996794872 12.1861049107143  8.41346153846154 12.0907738095238  8.35336538461538 12.0535714285714  C 7.84254807692308 12.0535714285714  7.38681891025641 12.158203125  6.98617788461538 12.3674665178571  C 6.58553685897436 12.5767299107143  6.26502403846154 12.846447172619  6.02463942307692 13.1766183035714  C 5.78425480769231 13.5067894345238  5.58643830128205 13.9067150297619  5.43118990384615 14.3763950892857  C 5.27594150641026 14.8460751488095  5.17077323717949 15.3134300595238  5.11568509615385 15.7784598214286  C 5.06059695512821 16.2434895833333  5.03305288461539 16.7410714285714  5.03305288461539 17.2712053571429  C 5.03305288461539 17.9501488095238  5.24338942307692 18.5151599702381  5.6640625 18.9662388392857  C 6.08473557692308 19.4173177083333  6.6005608974359 19.6428571428571  7.21153846153846 19.6428571428571  L 15.8653846153846 19.6428571428571  C 16.4763621794872 19.6428571428571  16.9921875 19.4173177083333  17.4128605769231 18.9662388392857  Z M 14.2953725961538 11.5373883928571  C 15.0615985576923 10.8305431547619  15.4447115384615 9.97953869047619  15.4447115384615 8.984375  C 15.4447115384615 7.97991071428572  15.0615985576923 7.12425595238095  14.2953725961538 6.41741071428572  C 13.5291466346154 5.71056547619047  12.6101762820513 5.35714285714286  11.5384615384615 5.35714285714286  C 10.4667467948718 5.35714285714286  9.54777644230769 5.71056547619047  8.78155048076923 6.41741071428572  C 8.01532451923077 7.12425595238095  7.63221153846154 7.97991071428572  7.63221153846154 8.984375  C 7.63221153846154 9.97953869047619  8.01532451923077 10.8305431547619  8.78155048076923 11.5373883928571  C 9.54777644230769 12.2442336309524  10.4667467948718 12.59765625  11.5384615384615 12.59765625  C 12.6101762820513 12.59765625  13.5291466346154 12.2442336309524  14.2953725961538 11.5373883928571  Z M 24.8647836538462 16.1969866071429  C 24.9549278846154 16.2806919642857  25 16.3876488095238  25 16.5178571428571  L 25 19.1964285714286  C 25 19.3266369047619  24.9549278846154 19.43359375  24.8647836538462 19.5172991071429  C 24.7746394230769 19.6010044642857  24.6594551282051 19.6428571428571  24.5192307692308 19.6428571428571  L 23.0769230769231 19.6428571428571  L 23.0769230769231 22.7678571428571  C 23.0769230769231 23.3816964285714  22.841546474359 23.9071800595238  22.3707932692308 24.3443080357143  C 21.9000400641026 24.7814360119048  21.3341346153846 25  20.6730769230769 25  L 2.40384615384615 25  C 1.74278846153846 25  1.17688301282051 24.7814360119048  0.706129807692308 24.3443080357143  C 0.235376602564103 23.9071800595238  0 23.3816964285714  0 22.7678571428571  L 0 2.23214285714286  C 0 1.61830357142857  0.235376602564103 1.09281994047619  0.706129807692308 0.655691964285715  C 1.17688301282051 0.218563988095238  1.74278846153846 0  2.40384615384615 0  L 20.6730769230769 0  C 21.3341346153846 0  21.9000400641026 0.218563988095238  22.3707932692308 0.655691964285715  C 22.841546474359 1.09281994047619  23.0769230769231 1.61830357142857  23.0769230769231 2.23214285714286  L 23.0769230769231 5.35714285714286  L 24.5192307692308 5.35714285714286  C 24.6594551282051 5.35714285714286  24.7746394230769 5.39899553571428  24.8647836538462 5.48270089285714  C 24.9549278846154 5.56640625  25 5.67336309523809  25 5.80357142857143  L 25 8.48214285714286  C 25 8.61235119047619  24.9549278846154 8.71930803571428  24.8647836538462 8.80301339285714  C 24.7746394230769 8.88671875  24.6594551282051 8.92857142857143  24.5192307692308 8.92857142857143  L 23.0769230769231 8.92857142857143  L 23.0769230769231 10.7142857142857  L 24.5192307692308 10.7142857142857  C 24.6594551282051 10.7142857142857  24.7746394230769 10.7561383928571  24.8647836538462 10.83984375  C 24.9549278846154 10.9235491071429  25 11.030505952381  25 11.1607142857143  L 25 13.8392857142857  C 25 13.969494047619  24.9549278846154 14.0764508928571  24.8647836538462 14.16015625  C 24.7746394230769 14.2438616071429  24.6594551282051 14.2857142857143  24.5192307692308 14.2857142857143  L 23.0769230769231 14.2857142857143  L 23.0769230769231 16.0714285714286  L 24.5192307692308 16.0714285714286  C 24.6594551282051 16.0714285714286  24.7746394230769 16.11328125  24.8647836538462 16.1969866071429  Z " fill-rule="nonzero" fill="#000000" stroke="none" transform="matrix(1 0 0 1 237 735 )" />
  </g>
</svg>