<?xml version="1.0" encoding="utf-8"?>
<svg version="1.1" xmlns:xlink="http://www.w3.org/1999/xlink" width="25px" height="25px" xmlns="http://www.w3.org/2000/svg">
  <g transform="matrix(1 0 0 1 -237 -735 )">
    <path d="M 14.2953725961538 6.41741071428572  C 15.0615985576923 7.12425595238095  15.4447115384615 7.97991071428572  15.4447115384615 8.984375  C 15.4447115384615 9.97953869047619  15.0615985576923 10.8305431547619  14.2953725961538 11.5373883928571  C 13.5291466346154 12.2442336309524  12.6101762820513 12.59765625  11.5384615384615 12.59765625  C 10.4667467948718 12.59765625  9.54777644230769 12.2442336309524  8.78155048076923 11.5373883928571  C 8.01532451923077 10.8305431547619  7.63221153846154 9.97953869047619  7.63221153846154 8.984375  C 7.63221153846154 7.97991071428572  8.01532451923077 7.12425595238095  8.78155048076923 6.41741071428572  C 9.54777644230769 5.71056547619047  10.4667467948718 5.35714285714286  11.5384615384615 5.35714285714286  C 12.6101762820513 5.35714285714286  13.5291466346154 5.71056547619047  14.2953725961538 6.41741071428572  Z M 14.2427884615385 12.3256138392857  C 14.4931891025641 12.1814546130952  14.6534455128205 12.0907738095238  14.7235576923077 12.0535714285714  C 15.1842948717949 12.0535714285714  15.5974559294872 12.1326264880952  15.9630408653846 12.2907366071429  C 16.3286258012821 12.4488467261905  16.6291065705128 12.6697358630952  16.8644831730769 12.9534040178571  C 17.099859775641 13.237072172619  17.2976762820513 13.5486421130952  17.4579326923077 13.8881138392857  C 17.6181891025641 14.2275855654762  17.7383814102564 14.604259672619  17.8185096153846 15.0181361607143  C 17.8986378205128 15.4320126488095  17.9562299679487 15.815662202381  17.9912860576923 16.1690848214286  C 18.0263421474359 16.5225074404762  18.0438701923077 16.8898809523809  18.0438701923077 17.2712053571429  C 18.0438701923077 17.8943452380952  17.8460536858974 18.4454055059524  17.4504206730769 18.9243861607143  C 17.0547876602564 19.4033668154762  16.5264423076923 19.6428571428571  15.8653846153846 19.6428571428571  L 7.21153846153846 19.6428571428571  C 6.55048076923077 19.6428571428571  6.02213541666667 19.4033668154762  5.62650240384615 18.9243861607143  C 5.23086939102564 18.4454055059524  5.03305288461539 17.8943452380952  5.03305288461539 17.2712053571429  C 5.03305288461539 16.8247767857143  5.05558894230769 16.3899739583333  5.10066105769231 15.966796875  C 5.14573317307692 15.5436197916667  5.23838141025641 15.0855654761905  5.37860576923077 14.5926339285714  C 5.51883012820513 14.0997023809524  5.70162259615385 13.6742001488095  5.92698317307692 13.3161272321429  C 6.15234375 12.9580543154762  6.46784855769231 12.6581101190476  6.87349759615385 12.4162946428571  C 7.27914663461539 12.1744791666667  7.74739583333333 12.0535714285714  8.27824519230769 12.0535714285714  L 8.35336538461538 12.0535714285714  C 8.42347756410256 12.0907738095238  8.58373397435897 12.1814546130952  8.83413461538462 12.3256138392857  C 9.08453525641026 12.4697730654762  9.26231971153846 12.5674293154762  9.36748798076923 12.6185825892857  C 9.47265625 12.6697358630952  9.63792067307692 12.748790922619  9.86328125 12.8557477678571  C 10.0886418269231 12.9627046130952  10.2739383012821 13.037109375  10.4191706730769 13.0789620535714  C 10.5644030448718 13.1208147321429  10.7396834935897 13.1626674107143  10.9450120192308 13.2045200892857  C 11.1503405448718 13.2463727678571  11.3481570512821 13.2672991071429  11.5384615384615 13.2672991071429  C 11.728766025641 13.2672991071429  11.9265825320513 13.2463727678571  12.1319110576923 13.2045200892857  C 12.3372395833333 13.1626674107143  12.5125200320513 13.1208147321429  12.6577524038462 13.0789620535714  C 12.802984775641 13.037109375  12.98828125 12.9627046130952  13.2136418269231 12.8557477678571  C 13.4390024038462 12.748790922619  13.6042668269231 12.6697358630952  13.7094350961538 12.6185825892857  C 13.8146033653846 12.5674293154762  13.9923878205128 12.4697730654762  14.2427884615385 12.3256138392857  Z M 25 5.80357142857143  L 25 8.48214285714286  C 25 8.60305059523809  24.9524238782051 8.70768229166667  24.8572716346154 8.79603794642857  C 24.7621193910256 8.88439360119047  24.6494391025641 8.92857142857143  24.5192307692308 8.92857142857143  L 23.0769230769231 8.92857142857143  L 23.0769230769231 10.7142857142857  L 24.5192307692308 10.7142857142857  C 24.6494391025641 10.7142857142857  24.7621193910256 10.7584635416667  24.8572716346154 10.8468191964286  C 24.9524238782051 10.9351748511905  25 11.039806547619  25 11.1607142857143  L 25 13.8392857142857  C 25 13.960193452381  24.9524238782051 14.0648251488095  24.8572716346154 14.1531808035714  C 24.7621193910256 14.2415364583333  24.6494391025641 14.2857142857143  24.5192307692308 14.2857142857143  L 23.0769230769231 14.2857142857143  L 23.0769230769231 16.0714285714286  L 24.5192307692308 16.0714285714286  C 24.6494391025641 16.0714285714286  24.7621193910256 16.1156063988095  24.8572716346154 16.2039620535714  C 24.9524238782051 16.2923177083333  25 16.3969494047619  25 16.5178571428571  L 25 19.1964285714286  C 25 19.3173363095238  24.9524238782051 19.4219680059524  24.8572716346154 19.5103236607143  C 24.7621193910256 19.5986793154762  24.6494391025641 19.6428571428571  24.5192307692308 19.6428571428571  L 23.0769230769231 19.6428571428571  L 23.0769230769231 22.7678571428571  C 23.0769230769231 23.3816964285714  22.841546474359 23.9071800595238  22.3707932692308 24.3443080357143  C 21.9000400641026 24.7814360119048  21.3341346153846 25  20.6730769230769 25  L 2.40384615384615 25  C 1.74278846153846 25  1.17688301282051 24.7814360119048  0.706129807692308 24.3443080357143  C 0.235376602564103 23.9071800595238  0 23.3816964285714  0 22.7678571428571  L 0 2.23214285714286  C 0 1.61830357142857  0.235376602564103 1.09281994047619  0.706129807692308 0.655691964285715  C 1.17688301282051 0.218563988095238  1.74278846153846 0  2.40384615384615 0  L 20.6730769230769 0  C 21.3341346153846 0  21.9000400641026 0.218563988095238  22.3707932692308 0.655691964285715  C 22.841546474359 1.09281994047619  23.0769230769231 1.61830357142857  23.0769230769231 2.23214285714286  L 23.0769230769231 5.35714285714286  L 24.5192307692308 5.35714285714286  C 24.6494391025641 5.35714285714286  24.7621193910256 5.40132068452381  24.8572716346154 5.48967633928572  C 24.9524238782051 5.57803199404762  25 5.68266369047619  25 5.80357142857143  Z M 21.0111177884615 23.0817522321429  C 21.1062700320513 22.993396577381  21.1538461538462 22.8887648809524  21 22.7678571428571  L 21 2.23214285714286  C 21.1538461538462 2.11123511904762  21.1062700320513 2.00660342261905  21.0111177884615 1.91824776785714  C 20.9159655448718 1.82989211309524  20.8032852564103 1.78571428571428  20.6730769230769 2  L 2.40384615384615 2  C 2.27363782051282 1.78571428571428  2.16095753205128 1.82989211309524  2.06580528846154 1.91824776785714  C 1.9706530448718 2.00660342261905  1.92307692307692 2.11123511904762  2 2.23214285714286  L 2 22.7678571428571  C 1.92307692307692 22.8887648809524  1.9706530448718 22.993396577381  2.06580528846154 23.0817522321429  C 2.16095753205128 23.1701078869048  2.27363782051282 23.2142857142857  2.40384615384615 23  L 20.6730769230769 23  C 20.8032852564103 23.2142857142857  20.9159655448718 23.1701078869048  21.0111177884615 23.0817522321429  Z " fill-rule="nonzero" fill="#000000" stroke="none" transform="matrix(1 0 0 1 237 735 )" />
  </g>
</svg>