<?xml version="1.0" encoding="utf-8"?>
<svg version="1.1" xmlns:xlink="http://www.w3.org/1999/xlink" width="35px" height="30px" xmlns="http://www.w3.org/2000/svg">
  <g transform="matrix(1 0 0 1 -349 -136 )">
    <path d="M 16.671142578125 12.802734375  C 15.389404296875 14.267578125  13.8427734375 15  12.03125 15  C 10.2197265625 15  8.673095703125 14.267578125  7.391357421875 12.802734375  C 6.109619140625 11.337890625  5.46875 9.5703125  5.46875 7.5  C 5.46875 5.4296875  6.109619140625 3.662109375  7.391357421875 2.197265625  C 8.673095703125 0.732421875  10.2197265625 0  12.03125 0  C 13.8427734375 0  15.389404296875 0.732421875  16.671142578125 2.197265625  C 17.952880859375 3.662109375  18.59375 5.4296875  18.59375 7.5  C 18.59375 9.5703125  17.952880859375 11.337890625  16.671142578125 12.802734375  Z M 28.4375 10.625  L 28.4375 17.5  L 34.453125 17.5  C 34.6012369791667 17.5  34.7294108072917 17.5618489583333  34.837646484375 17.685546875  C 34.9458821614583 17.8092447916667  35 17.9557291666667  35 18.125  L 35 21.875  C 35 22.0442708333333  34.9458821614583 22.1907552083333  34.837646484375 22.314453125  C 34.7294108072917 22.4381510416667  34.6012369791667 22.5  34.453125 22.5  L 28.4375 22.5  L 28.4375 29.375  C 28.4375 29.5442708333333  28.3833821614583 29.6907552083333  28.275146484375 29.814453125  C 28.1669108072917 29.9381510416667  28.0387369791667 30  27.890625 30  L 24.609375 30  C 24.4612630208333 30  24.3330891927083 29.9381510416667  24.224853515625 29.814453125  C 24.1166178385417 29.6907552083333  24.0625 29.5442708333333  24.0625 29.375  L 24.0625 22.5  L 18.046875 22.5  C 17.8987630208333 22.5  17.7705891927083 22.4381510416667  17.662353515625 22.314453125  C 17.5541178385417 22.1907552083333  17.5 22.0442708333333  17.5 21.875  L 17.5 18.125  C 17.5 17.9557291666667  17.5541178385417 17.8092447916667  17.662353515625 17.685546875  C 17.7705891927083 17.5618489583333  17.8987630208333 17.5  18.046875 17.5  L 24.0625 17.5  L 24.0625 10.625  C 24.0625 10.4557291666667  24.1166178385417 10.3092447916667  24.224853515625 10.185546875  C 24.3330891927083 10.0618489583333  24.4612630208333 10  24.609375 10  L 27.890625 10  C 28.0387369791667 10  28.1669108072917 10.0618489583333  28.275146484375 10.185546875  C 28.3833821614583 10.3092447916667  28.4375 10.4557291666667  28.4375 10.625  Z M 15.859375 18.125  L 15.859375 21.875  C 15.859375 22.5520833333333  16.0758463541667 23.1380208333333  16.5087890625 23.6328125  C 16.9417317708333 24.1276041666667  17.4544270833333 24.375  18.046875 24.375  L 22.421875 24.375  L 22.421875 29.0234375  C 21.6471354166667 29.6744791666667  20.6730143229167 30  19.49951171875 30  L 4.56298828125 30  C 3.18440755208333 30  2.07926432291667 29.55078125  1.24755859375 28.65234375  C 0.415852864583333 27.75390625  0 26.5169270833333  0 24.94140625  C 0 24.2513020833333  0.0199381510416667 23.5774739583333  0.059814453125 22.919921875  C 0.0996907552083333 22.2623697916667  0.179443359375 21.552734375  0.299072265625 20.791015625  C 0.418701171875 20.029296875  0.569661458333333 19.3229166666667  0.751953125 18.671875  C 0.934244791666667 18.0208333333333  1.17919921875 17.3860677083333  1.48681640625 16.767578125  C 1.79443359375 16.1490885416667  2.14762369791667 15.6217447916667  2.54638671875 15.185546875  C 2.94514973958333 14.7493489583333  3.43221028645833 14.4010416666667  4.007568359375 14.140625  C 4.58292643229167 13.8802083333333  5.21809895833333 13.75  5.9130859375 13.75  C 6.12955729166667 13.75  6.35172526041667 13.8606770833333  6.57958984375 14.08203125  C 7.47965494791667 14.8763020833333  8.35978190104167 15.4720052083333  9.219970703125 15.869140625  C 10.0801595052083 16.2662760416667  11.0172526041667 16.46484375  12.03125 16.46484375  C 13.0452473958333 16.46484375  13.9823404947917 16.2662760416667  14.842529296875 15.869140625  C 15.7027180989583 15.4720052083333  16.5828450520833 14.8763020833333  17.48291015625 14.08203125  C 17.7107747395833 13.8606770833333  17.9329427083333 13.75  18.1494140625 13.75  C 19.6533203125 13.75  20.8894856770833 14.375  21.85791015625 15.625  L 18.046875 15.625  C 17.4544270833333 15.625  16.9417317708333 15.8723958333333  16.5087890625 16.3671875  C 16.0758463541667 16.8619791666667  15.859375 17.4479166666667  15.859375 18.125  Z " fill-rule="nonzero" fill="#d7d7d7" stroke="none" transform="matrix(1 0 0 1 349 136 )" />
  </g>
</svg>