<?xml version="1.0" encoding="utf-8"?>
<svg version="1.1" xmlns:xlink="http://www.w3.org/1999/xlink" width="30px" height="30px" xmlns="http://www.w3.org/2000/svg">
  <g transform="matrix(1 0 0 1 -65 -776 )">
    <path d="M 0 6.42857142857143  L 15 0  L 30 6.42857142857143  L 30 8.57142857142857  L 28 8.57142857142857  C 28 8.86160714285714  27.8932291666667 9.11272321428571  27.6796875 9.32477678571429  C 27.4661458333333 9.53683035714285  27.2135416666667 9.64285714285714  26.921875 10  L 3.078125 10  C 2.78645833333333 9.64285714285714  2.53385416666667 9.53683035714285  2.3203125 9.32477678571429  C 2.10677083333333 9.11272321428571  2 8.86160714285714  2 8.57142857142857  L 0 8.57142857142857  L 0 6.42857142857143  Z M 4 23.5714285714286  L 4 10.7142857142857  L 8 10.7142857142857  L 8 23.5714285714286  L 10 23.5714285714286  L 10 10.7142857142857  L 14 10.7142857142857  L 14 23.5714285714286  L 16 23.5714285714286  L 16 10.7142857142857  L 20 10.7142857142857  L 20 23.5714285714286  L 22 23.5714285714286  L 22 10.7142857142857  L 26 10.7142857142857  L 26 23.5714285714286  L 26.921875 23.5714285714286  C 27.2135416666667 23.5714285714286  27.4661458333333 23.6774553571429  27.6796875 23.8895089285714  C 27.8932291666667 24.1015625  28 24.3526785714286  28 24.6428571428571  L 28 25.7142857142857  L 2 25.7142857142857  L 2 24.6428571428571  C 2 24.3526785714286  2.10677083333333 24.1015625  2.3203125 23.8895089285714  C 2.53385416666667 23.6774553571429  2.78645833333333 23.5714285714286  3.078125 23.5714285714286  L 4 23.5714285714286  Z M 1.078125 26.7857142857143  L 28.921875 26.7857142857143  C 29.2135416666667 26.7857142857143  29.4661458333333 26.8917410714286  29.6796875 27.1037946428571  C 29.8932291666667 27.3158482142857  30 27.5669642857143  30 27.8571428571429  L 30 30  L 0 30  L 0 27.8571428571429  C 0 27.5669642857143  0.106770833333333 27.3158482142857  0.3203125 27.1037946428571  C 0.533854166666667 26.8917410714286  0.786458333333333 26.7857142857143  1.078125 26.7857142857143  Z " fill-rule="nonzero" fill="#555555" stroke="none" transform="matrix(1 0 0 1 65 776 )" />
  </g>
</svg>