<?xml version="1.0" encoding="utf-8"?>
<svg version="1.1" xmlns:xlink="http://www.w3.org/1999/xlink" width="30px" height="30px" xmlns="http://www.w3.org/2000/svg">
  <defs>
    <linearGradient gradientUnits="userSpaceOnUse" x1="15" y1="0" x2="15" y2="30" id="LinearGradient588">
      <stop id="Stop589" stop-color="#d9001b" offset="0" />
      <stop id="Stop590" stop-color="#f59a23" offset="1" />
    </linearGradient>
  </defs>
  <g transform="matrix(1 0 0 1 -130 -776 )">
    <path d="M 11.8203125 13.6388221153846  C 12.7005208333333 12.6231971153846  13.7604166666667 12.1153846153846  15 12.1153846153846  C 16.2395833333333 12.1153846153846  17.2994791666667 12.6231971153846  18.1796875 13.6388221153846  C 19.0598958333333 14.6544471153846  19.5 15.8774038461538  19.5 17.3076923076923  C 19.5 18.7379807692308  19.0598958333333 19.9609375  18.1796875 20.9765625  C 17.2994791666667 21.9921875  16.2395833333333 22.5  15 22.5  C 13.7604166666667 22.5  12.7005208333333 21.9921875  11.8203125 20.9765625  C 10.9401041666667 19.9609375  10.5 18.7379807692308  10.5 17.3076923076923  C 10.5 15.8774038461538  10.9401041666667 14.6544471153846  11.8203125 13.6388221153846  Z M 22.5 4.61538461538462  L 26 4.61538461538462  C 27.1041666666667 4.61538461538462  28.046875 5.06610576923077  28.828125 5.96754807692308  C 29.609375 6.86899038461538  30 7.95673076923077  30 9.23076923076923  L 30 25.3846153846154  C 30 26.6586538461538  29.609375 27.7463942307692  28.828125 28.6478365384615  C 28.046875 29.5492788461538  27.1041666666667 30  26 30  L 4 30  C 2.89583333333333 30  1.953125 29.5492788461538  1.171875 28.6478365384615  C 0.390625 27.7463942307692  0 26.6586538461538  0 25.3846153846154  L 0 9.23076923076923  C 0 7.95673076923077  0.390625 6.86899038461538  1.171875 5.96754807692308  C 1.953125 5.06610576923077  2.89583333333333 4.61538461538462  4 4.61538461538462  L 7.5 4.61538461538462  L 8.296875 2.16346153846154  C 8.49479166666667 1.57451923076923  8.85677083333333 1.06670673076923  9.3828125 0.640024038461537  C 9.90885416666667 0.213341346153849  10.4479166666667 0  11 0  L 19 0  C 19.5520833333333 0  20.0911458333333 0.213341346153849  20.6171875 0.640024038461537  C 21.1432291666667 1.06670673076923  21.5052083333333 1.57451923076923  21.703125 2.16346153846154  L 22.5 4.61538461538462  Z M 10.0546875 23.0138221153846  C 11.4244791666667 24.5943509615385  13.0729166666667 25.3846153846154  15 25.3846153846154  C 16.9270833333333 25.3846153846154  18.5755208333333 24.5943509615385  19.9453125 23.0138221153846  C 21.3151041666667 21.4332932692308  22 19.53125  22 17.3076923076923  C 22 15.0841346153846  21.3151041666667 13.1820913461538  19.9453125 11.6015625  C 18.5755208333333 10.0210336538462  16.9270833333333 9.23076923076923  15 9.23076923076923  C 13.0729166666667 9.23076923076923  11.4244791666667 10.0210336538462  10.0546875 11.6015625  C 8.68489583333333 13.1820913461538  8 15.0841346153846  8 17.3076923076923  C 8 19.53125  8.68489583333333 21.4332932692308  10.0546875 23.0138221153846  Z " fill-rule="nonzero" fill="url(#LinearGradient588)" stroke="none" transform="matrix(1 0 0 1 130 776 )" />
  </g>
</svg>